<svg xmlns="http://www.w3.org/2000/svg" version="1.1" xmlns:xlink="http://www.w3.org/1999/xlink" xmlns:svgjs="http://svgjs.dev/svgjs" width="1000" height="1000"><style>
    #light-icon {
      display: inline;
    }
    #dark-icon {
      display: none;
    }

    @media (prefers-color-scheme: dark) {
      #light-icon {
        display: none;
      }
      #dark-icon {
        display: inline;
      }
    }
  </style><g id="light-icon"><svg xmlns="http://www.w3.org/2000/svg" version="1.1" xmlns:xlink="http://www.w3.org/1999/xlink" xmlns:svgjs="http://svgjs.dev/svgjs" width="1000" height="1000"><g><g transform="matrix(10.837758751490192,0,0,10.837758751490192,0,275.4958274628807)"><svg xmlns="http://www.w3.org/2000/svg" version="1.1" xmlns:xlink="http://www.w3.org/1999/xlink" xmlns:svgjs="http://svgjs.dev/svgjs" width="92.27" height="41.43"><svg id="Calque_1" data-name="Calque 1" xmlns="http://www.w3.org/2000/svg" viewBox="0 0 92.27 41.43">
  <path d="M7.79,7.22h7.95c5.24,0,8.76,3.19,8.76,8.6,0,6.78-4.09,11.42-10.98,11.42H3.92L7.79,7.22ZM13.47,22.45c3.22,0,5.15-2.6,5.15-6.22,0-2.8-1.37-4.23-3.89-4.23h-2.1l-2.02,10.44h2.86Z"></path>
  <g>
    <path d="M48.21,7.28l13.08-.06-1.06,4.92h-5.57l-2.91,15.09h-5.74l2.91-15.09h-5.49l3.67-4.35c.28-.33.68-.51,1.11-.52Z"></path>
    <path d="M62.99,7.22h5.77l-3.86,19.95h-5.77l3.86-19.95Z"></path>
    <path d="M69.3,7.23h5.85l.92,9.41c.17,1.71.28,3.89.28,3.89h.03s.9-2.18,1.68-3.89l4.28-9.41h5.94l-9.91,20.02h-6.47l-2.6-20.02Z"></path>
  </g>
  <g>
    <path d="M4.92,36.09h-.02v.58h-1.4v-6.44h1.47v2.35h.03c.29-.4.68-.66,1.31-.66,1.2,0,1.97,1.05,1.97,2.44,0,1.53-.77,2.45-1.96,2.45-.61,0-1.11-.25-1.4-.73ZM6.79,34.36c0-.79-.31-1.31-.91-1.31-.65,0-.96.57-.96,1.32s.38,1.29.98,1.29.89-.5.89-1.3Z"></path>
    <path d="M8.47,37.05h.5c.43,0,.6-.17.6-.49,0-.2-.09-.47-.28-.96l-1.36-3.55h1.55l.62,1.96c.14.45.29,1.06.29,1.06h.02s.13-.61.27-1.06l.6-1.96h1.47l-1.59,4.67c-.37,1.08-.81,1.46-1.74,1.46h-.95v-1.14Z"></path>
    <path d="M14.03,30.24h2.75c1.78,0,2.98,1.29,2.98,3.26,0,1.13-.4,2.04-1.12,2.59-.5.38-1.15.58-1.96.58h-2.65v-6.44ZM16.56,35.33c1.04,0,1.58-.66,1.58-1.84s-.57-1.93-1.57-1.93h-.95v3.76h.94Z"></path>
    <path d="M19.8,34.36c0-1.38.96-2.43,2.37-2.43.66,0,1.18.22,1.58.58.55.5.82,1.31.81,2.24h-3.31c.09.62.43,1.01,1.04,1.01.39,0,.64-.17.77-.46h1.43c-.1.41-.37.81-.77,1.09-.39.27-.85.42-1.44.42-1.52,0-2.46-1.05-2.46-2.45ZM23.07,33.87c-.05-.55-.4-.9-.87-.9-.56,0-.85.35-.95.9h1.82Z"></path>
    <path d="M24.57,34.38c0-1.39.95-2.44,2.41-2.44,1.25,0,2.05.73,2.19,1.76h-1.41c-.09-.41-.34-.68-.76-.68-.63,0-.95.52-.95,1.36s.32,1.34.95,1.34c.46,0,.74-.27.8-.79h1.4c-.04,1.06-.88,1.89-2.19,1.89-1.49,0-2.45-1.05-2.45-2.44Z"></path>
    <path d="M29.28,35.38c0-1.02.81-1.32,1.76-1.45.86-.11,1.17-.2,1.17-.51,0-.3-.19-.5-.63-.5-.47,0-.7.21-.75.59h-1.35c.04-.86.69-1.58,2.09-1.58.69,0,1.16.13,1.49.38.4.29.58.74.58,1.31v2.32c0,.37.04.58.16.66v.06h-1.42c-.07-.1-.12-.28-.15-.51h-.02c-.27.39-.68.63-1.37.63-.92,0-1.58-.5-1.58-1.4ZM32.25,35.02v-.55c-.19.1-.46.17-.76.24-.57.13-.8.27-.8.62,0,.37.27.51.63.51.55,0,.93-.33.93-.83Z"></path>
    <path d="M34.37,35.46v-2.48h-.61v-.92h.61v-1.46h1.43v1.46h.84v.92h-.84v2.16c0,.36.2.45.51.45.13,0,.27,0,.32,0v1.07c-.13.04-.41.07-.8.07-.86,0-1.47-.28-1.47-1.27Z"></path>
    <path d="M36.9,30.24h1.47v2.39h.03c.33-.44.73-.7,1.37-.7,1.01,0,1.6.72,1.6,1.75v3h-1.47v-2.7c0-.49-.24-.82-.72-.82s-.81.41-.81.97v2.55h-1.47v-6.44Z"></path>
    <path d="M41.76,30.24h1.49v6.44h-1.49v-6.44Z"></path>
    <path d="M43.48,34.38c0-1.39.99-2.44,2.47-2.44s2.46,1.05,2.46,2.44-.97,2.44-2.46,2.44-2.47-1.05-2.47-2.44ZM46.92,34.38c0-.84-.34-1.4-.98-1.4s-.97.57-.97,1.4.33,1.4.97,1.4.98-.56.98-1.4Z"></path>
    <path d="M48.63,32.06h1.41v.63h.03c.34-.5.78-.77,1.42-.77,1.01,0,1.6.72,1.6,1.75v3h-1.47v-2.7c0-.49-.24-.82-.72-.82s-.81.41-.81.97v2.55h-1.47v-4.61Z"></path>
  </g>
  <path d="M34,5.91v4.55l-4.88,4.62s-.66-4.17.66-5.32,4.22-3.85,4.22-3.85Z"></path>
  <path d="M43.31,5.91v4.72s.18.43-1.18,1.71-7.1,6.81-7.1,6.81l8.29,8.09h-5.56s-.96.04-2.32-1.68-3.55-3.58-3.55-3.58l-6.6.22L43.31,5.91Z"></path>
</svg></svg></g></g></svg></g><g id="dark-icon"><svg xmlns="http://www.w3.org/2000/svg" version="1.1" xmlns:xlink="http://www.w3.org/1999/xlink" xmlns:svgjs="http://svgjs.dev/svgjs" width="1000" height="1000"><g><g transform="matrix(10.837758751490192,0,0,10.837758751490192,0,275.4958274628807)"><svg xmlns="http://www.w3.org/2000/svg" version="1.1" xmlns:xlink="http://www.w3.org/1999/xlink" xmlns:svgjs="http://svgjs.dev/svgjs" width="92.27" height="41.43"><svg id="Calque_1" data-name="Calque 1" xmlns="http://www.w3.org/2000/svg" viewBox="0 0 92.27 41.43">
  <path d="M7.79,7.22h7.95c5.24,0,8.76,3.19,8.76,8.6,0,6.78-4.09,11.42-10.98,11.42H3.92L7.79,7.22ZM13.47,22.45c3.22,0,5.15-2.6,5.15-6.22,0-2.8-1.37-4.23-3.89-4.23h-2.1l-2.02,10.44h2.86Z"></path>
  <g>
    <path d="M48.21,7.28l13.08-.06-1.06,4.92h-5.57l-2.91,15.09h-5.74l2.91-15.09h-5.49l3.67-4.35c.28-.33.68-.51,1.11-.52Z"></path>
    <path d="M62.99,7.22h5.77l-3.86,19.95h-5.77l3.86-19.95Z"></path>
    <path d="M69.3,7.23h5.85l.92,9.41c.17,1.71.28,3.89.28,3.89h.03s.9-2.18,1.68-3.89l4.28-9.41h5.94l-9.91,20.02h-6.47l-2.6-20.02Z"></path>
  </g>
  <g>
    <path d="M4.92,36.09h-.02v.58h-1.4v-6.44h1.47v2.35h.03c.29-.4.68-.66,1.31-.66,1.2,0,1.97,1.05,1.97,2.44,0,1.53-.77,2.45-1.96,2.45-.61,0-1.11-.25-1.4-.73ZM6.79,34.36c0-.79-.31-1.31-.91-1.31-.65,0-.96.57-.96,1.32s.38,1.29.98,1.29.89-.5.89-1.3Z"></path>
    <path d="M8.47,37.05h.5c.43,0,.6-.17.6-.49,0-.2-.09-.47-.28-.96l-1.36-3.55h1.55l.62,1.96c.14.45.29,1.06.29,1.06h.02s.13-.61.27-1.06l.6-1.96h1.47l-1.59,4.67c-.37,1.08-.81,1.46-1.74,1.46h-.95v-1.14Z"></path>
    <path d="M14.03,30.24h2.75c1.78,0,2.98,1.29,2.98,3.26,0,1.13-.4,2.04-1.12,2.59-.5.38-1.15.58-1.96.58h-2.65v-6.44ZM16.56,35.33c1.04,0,1.58-.66,1.58-1.84s-.57-1.93-1.57-1.93h-.95v3.76h.94Z"></path>
    <path d="M19.8,34.36c0-1.38.96-2.43,2.37-2.43.66,0,1.18.22,1.58.58.55.5.82,1.31.81,2.24h-3.31c.09.62.43,1.01,1.04,1.01.39,0,.64-.17.77-.46h1.43c-.1.41-.37.81-.77,1.09-.39.27-.85.42-1.44.42-1.52,0-2.46-1.05-2.46-2.45ZM23.07,33.87c-.05-.55-.4-.9-.87-.9-.56,0-.85.35-.95.9h1.82Z"></path>
    <path d="M24.57,34.38c0-1.39.95-2.44,2.41-2.44,1.25,0,2.05.73,2.19,1.76h-1.41c-.09-.41-.34-.68-.76-.68-.63,0-.95.52-.95,1.36s.32,1.34.95,1.34c.46,0,.74-.27.8-.79h1.4c-.04,1.06-.88,1.89-2.19,1.89-1.49,0-2.45-1.05-2.45-2.44Z"></path>
    <path d="M29.28,35.38c0-1.02.81-1.32,1.76-1.45.86-.11,1.17-.2,1.17-.51,0-.3-.19-.5-.63-.5-.47,0-.7.21-.75.59h-1.35c.04-.86.69-1.58,2.09-1.58.69,0,1.16.13,1.49.38.4.29.58.74.58,1.31v2.32c0,.37.04.58.16.66v.06h-1.42c-.07-.1-.12-.28-.15-.51h-.02c-.27.39-.68.63-1.37.63-.92,0-1.58-.5-1.58-1.4ZM32.25,35.02v-.55c-.19.1-.46.17-.76.24-.57.13-.8.27-.8.62,0,.37.27.51.63.51.55,0,.93-.33.93-.83Z"></path>
    <path d="M34.37,35.46v-2.48h-.61v-.92h.61v-1.46h1.43v1.46h.84v.92h-.84v2.16c0,.36.2.45.51.45.13,0,.27,0,.32,0v1.07c-.13.04-.41.07-.8.07-.86,0-1.47-.28-1.47-1.27Z"></path>
    <path d="M36.9,30.24h1.47v2.39h.03c.33-.44.73-.7,1.37-.7,1.01,0,1.6.72,1.6,1.75v3h-1.47v-2.7c0-.49-.24-.82-.72-.82s-.81.41-.81.97v2.55h-1.47v-6.44Z"></path>
    <path d="M41.76,30.24h1.49v6.44h-1.49v-6.44Z"></path>
    <path d="M43.48,34.38c0-1.39.99-2.44,2.47-2.44s2.46,1.05,2.46,2.44-.97,2.44-2.46,2.44-2.47-1.05-2.47-2.44ZM46.92,34.38c0-.84-.34-1.4-.98-1.4s-.97.57-.97,1.4.33,1.4.97,1.4.98-.56.98-1.4Z"></path>
    <path d="M48.63,32.06h1.41v.63h.03c.34-.5.78-.77,1.42-.77,1.01,0,1.6.72,1.6,1.75v3h-1.47v-2.7c0-.49-.24-.82-.72-.82s-.81.41-.81.97v2.55h-1.47v-4.61Z"></path>
  </g>
  <path d="M34,5.91v4.55l-4.88,4.62s-.66-4.17.66-5.32,4.22-3.85,4.22-3.85Z"></path>
  <path d="M43.31,5.91v4.72s.18.43-1.18,1.71-7.1,6.81-7.1,6.81l8.29,8.09h-5.56s-.96.04-2.32-1.68-3.55-3.58-3.55-3.58l-6.6.22L43.31,5.91Z"></path>
</svg></svg></g></g></svg></g></svg>