<svg width="235" height="422" viewBox="0 0 235 422" fill="none" xmlns="http://www.w3.org/2000/svg">
<path d="M75.7499 181.231C75.7441 181.193 75.7366 181.145 75.7275 181.085C75.7036 180.928 75.6686 180.695 75.624 180.391C75.5349 179.782 75.4075 178.886 75.2546 177.737C74.9489 175.439 74.5413 172.131 74.1336 168.09C73.3183 160.007 72.503 148.993 72.503 137.267C72.503 125.539 73.3184 113.101 75.7635 102.169C78.209 91.2358 82.283 81.8167 88.7948 76.12C101.842 64.7059 122.716 45.6846 140.329 29.5172C149.135 21.4334 157.126 14.063 162.915 8.71354C165.81 6.0388 168.154 3.8693 169.774 2.36848C170.585 1.61807 171.214 1.03483 171.641 0.639191L172.127 0.188988L172.222 0.100402V90.0102L75.7499 181.231Z" fill="#0A2BEF" stroke="#DDE1F9" stroke-width="0.0968811"/>
<path d="M192.682 261.874C192.681 261.874 192.68 261.875 192.714 261.91L192.68 261.875L192.644 261.909L192.68 261.944L356.585 421.949L246.727 421.949L246.725 421.949L246.727 421.998C246.725 421.949 246.725 421.949 246.724 421.95H246.724L246.721 421.95L246.711 421.95C246.703 421.95 246.689 421.951 246.671 421.951C246.635 421.952 246.581 421.952 246.509 421.951C246.365 421.949 246.149 421.942 245.865 421.921C245.298 421.878 244.456 421.78 243.361 421.555C241.171 421.105 237.969 420.149 233.922 418.128C225.828 414.086 214.356 405.779 200.856 388.72C187.351 371.659 169.796 353.943 155.619 340.493C148.53 333.768 142.286 328.109 137.813 324.131C135.577 322.142 133.784 320.574 132.549 319.503C131.932 318.967 131.455 318.555 131.132 318.278C130.97 318.139 130.847 318.034 130.765 317.963L130.671 317.884L130.648 317.864L130.642 317.859L130.64 317.857C130.64 317.857 130.64 317.857 130.608 317.894L130.64 317.857L130.625 317.845L130.607 317.845L0.215611 322.212L356.485 0.109103V93.2954V93.3052L356.489 93.3143L356.489 93.3152L356.49 93.3192C356.492 93.3229 356.494 93.3288 356.497 93.3368C356.503 93.3528 356.511 93.3773 356.52 93.4106C356.54 93.4773 356.565 93.5793 356.587 93.7186C356.632 93.9971 356.667 94.425 356.625 95.0188C356.541 96.2065 356.148 98.0579 354.913 100.704C352.441 105.996 346.596 114.463 333.1 127.147C319.597 139.834 284.492 173.516 252.763 204.026C236.898 219.281 221.878 233.743 210.823 244.392C205.296 249.716 200.76 254.087 197.606 257.126C196.029 258.646 194.798 259.833 193.961 260.641L193.007 261.56L192.763 261.795L192.701 261.855L192.686 261.87L192.682 261.874Z" fill="#0A2BEF" stroke="#DDE1F9" stroke-width="0.0968811"/>
</svg>
